<?xml version="1.0" encoding="UTF-8" standalone="no"?>
<!-- Created with Inkscape (http://www.inkscape.org/) -->

<svg
   width="145pt"
   height="60.000004pt"
   viewBox="0 0 145 60.000003"
   version="1.1"
   id="svg432"
   xml:space="preserve"
   xmlns="http://www.w3.org/2000/svg"
   xmlns:svg="http://www.w3.org/2000/svg"><defs
     id="defs429"><rect
       x="458.54507"
       y="192.62766"
       width="465.83951"
       height="155.31242"
       id="rect2669" /><rect
       x="458.54507"
       y="192.62766"
       width="465.83951"
       height="155.31242"
       id="rect2681" /></defs><path
     id="path1437"
     style="font-size:19.1776px;font-family:'Obviously Variable';-inkscape-font-specification:'Obviously Variable, @ital=1.00,wght=723,wdth=66';font-variation-settings:'ital' 1, 'wdth' 66, 'wght' 723;text-align:center;letter-spacing:1.50928px;text-anchor:middle;fill:#0f3d3d;fill-opacity:1;stroke-width:1;stroke-linecap:round;stroke-linejoin:bevel;stroke-opacity:0.745913;paint-order:stroke markers fill"
     d="M 19.192383 0 C 18.222261 -0.007999992 17.116557 0.20793632 15.812988 0.74267578 L 15.812988 14.787598 L 12.452637 14.787598 L 12.452637 18.638672 C 12.452637 20.28646 11.115086 21.618164 9.4746094 21.618164 C 7.834188 21.618164 6.496582 20.28646 6.496582 18.638672 L 6.496582 14.787598 L 0 14.787598 L 0 41.436035 L 11.100586 41.436035 L 11.100586 33.588867 C 11.100586 30.140957 13.895175 27.345703 17.327637 27.345703 C 20.760153 27.345703 23.553223 30.140957 23.553223 33.588867 L 23.553223 41.436035 L 34.700684 41.436035 L 34.700684 14.787598 L 28.152832 14.787598 L 28.152832 18.622559 C 28.152832 20.270347 26.815228 21.602051 25.174805 21.602051 C 23.534328 21.602051 22.196777 20.270347 22.196777 18.622559 L 22.196777 14.787598 L 18.710449 14.787598 L 18.710449 9.8642578 C 18.710449 9.8642578 19.449823 8.3415143 22.148438 9.0131836 C 25.719434 9.9020627 30.118531 9.2997432 32.942871 4.1879883 C 25.721586 6.5663859 24.431041 0.041269959 19.192383 0 z M 82.533691 14.160645 C 79.797087 14.160645 77.358349 14.745685 75.28418 15.902344 C 73.205614 17.035303 71.575523 18.669583 70.437012 20.76123 C 69.325988 22.849368 68.762695 25.300259 68.762695 28.047363 C 68.762695 30.794414 69.314105 33.246079 70.400391 35.333496 C 71.515264 37.425146 73.134385 39.075281 75.212402 40.231934 C 77.28657 41.360549 79.749256 41.937012 82.538086 41.937012 C 86.071263 41.937012 88.868162 41.024613 90.851074 39.221191 C 92.862022 37.417055 93.884766 34.898267 93.884766 31.744629 L 93.884766 28.986328 L 80.173828 28.986328 L 80.173828 32.597168 L 89.887207 32.597168 C 89.850927 34.30235 89.2635 35.687341 88.138184 36.717773 C 86.971636 37.783334 85.151768 38.324707 82.728516 38.324707 C 80.658196 38.324707 78.849839 37.901756 77.362793 37.064941 C 75.875746 36.204489 74.721006 34.992518 73.932129 33.46875 C 73.162494 31.909853 72.769043 30.086642 72.769043 28.045898 C 72.769043 26.005099 73.170162 24.221496 73.967285 22.662598 C 74.758997 21.114625 75.886607 19.903887 77.321777 19.070801 C 78.760996 18.210302 80.45508 17.775879 82.35498 17.775879 C 84.925014 17.775879 86.892788 18.416488 88.205566 19.671387 C 89.519445 20.930505 90.2844 22.646537 90.474609 24.770508 L 90.486328 24.912598 L 94.476563 24.912598 L 94.467773 24.74707 C 94.393014 22.923583 93.905412 21.189769 93.013184 19.587891 C 92.120406 17.981652 90.759611 16.667191 88.979004 15.684082 C 87.221486 14.673773 85.052599 14.160645 82.533691 14.160645 z M 45.621094 14.712891 L 45.621094 41.39209 L 56.080078 41.39209 C 58.729823 41.39209 60.84771 40.737618 62.362793 39.451172 C 63.914158 38.156149 64.697754 36.293175 64.697754 33.909668 C 64.697754 30.973288 63.489082 28.998193 61.101563 28.047363 L 61.105957 28.051758 C 60.938836 27.988648 60.915527 27.904467 60.915527 27.833496 C 60.915527 27.718765 60.944077 27.687213 60.963867 27.663574 C 60.983107 27.635594 61.038441 27.576832 61.205566 27.493652 C 63.406174 26.250252 64.524902 24.402876 64.524902 22.010742 C 64.524902 19.618605 63.75081 17.926602 62.223633 16.655273 C 60.704702 15.368825 58.642958 14.712891 56.088867 14.712891 L 45.621094 14.712891 z M 49.618652 18.32666 L 55.715332 18.32666 C 57.289786 18.32666 58.49645 18.634223 59.30127 19.246582 C 60.113785 19.846781 60.525879 20.837184 60.525879 22.195313 C 60.525879 23.553451 60.114885 24.543837 59.30127 25.144043 L 59.296875 25.146973 C 58.495904 25.758613 57.289786 26.066895 55.715332 26.066895 L 49.618652 26.066895 L 49.618652 18.32666 z M 105.09668 22.050293 C 104.86655 22.983599 104.61037 24.017892 104.3291 25.155762 C 104.06062 26.293631 103.72788 27.649606 103.33154 29.222168 C 102.94799 30.74359 102.61672 32.06681 102.33545 33.191895 C 102.0414 34.316979 101.75872 35.39654 101.49023 36.432129 L 103.73438 36.432129 C 103.84944 35.895157 103.95876 35.403043 104.06104 34.955566 C 104.1761 34.495304 104.28395 34.048461 104.38623 33.61377 C 104.5013 33.166293 104.61061 32.705469 104.71289 32.232422 C 104.82796 31.759374 104.95605 31.248487 105.09668 30.69873 C 105.21175 30.238468 105.3196 29.765129 105.42188 29.279297 L 105.72949 27.783691 C 105.82745 27.293914 105.93036 26.798378 106.04004 26.296875 L 106.13086 26.289551 C 106.08973 26.653114 106.04606 27.021622 105.99756 27.399902 C 105.93363 27.885735 105.87584 28.352816 105.82471 28.800293 C 105.77359 29.24777 105.73605 29.636827 105.71045 29.969238 L 105.22998 36.432129 L 106.32422 36.432129 L 109.02832 30.046875 C 109.15617 29.740034 109.29678 29.376008 109.4502 28.954102 C 109.6164 28.51941 109.78829 28.058586 109.96729 27.572754 C 110.12991 27.149933 110.287 26.72702 110.44043 26.304199 L 110.521 26.314453 C 110.48912 26.428397 110.46048 26.536526 110.42725 26.652832 C 110.22269 27.368795 110.01804 28.071814 109.81348 28.762207 C 109.60892 29.4526 109.43703 30.097832 109.29639 30.69873 C 109.15575 31.248487 109.02141 31.759374 108.89355 32.232422 C 108.77849 32.692683 108.66292 33.14725 108.54785 33.594727 C 108.43279 34.029419 108.31242 34.476262 108.18457 34.936523 C 108.0695 35.396786 107.93516 35.895157 107.78174 36.432129 L 110.25439 36.432129 C 110.49731 35.39654 110.75349 34.316979 111.02197 33.191895 C 111.30324 32.06681 111.63598 30.74359 112.01953 29.222168 C 112.41587 27.649606 112.75486 26.293631 113.03613 25.155762 C 113.33019 24.017892 113.59888 22.983599 113.8418 22.050293 L 110.73486 22.050293 C 110.6198 22.357133 110.47294 22.72116 110.29395 23.143066 C 110.12774 23.564973 109.94186 24.018074 109.7373 24.503906 C 109.54552 24.989738 109.34087 25.50209 109.12354 26.039063 L 108.47168 27.61084 C 108.35661 27.917681 108.22227 28.281706 108.06885 28.703613 C 107.91543 29.12552 107.76231 29.555055 107.60889 29.989746 C 107.56185 30.123015 107.51995 30.242407 107.47412 30.37207 L 107.40088 30.37207 C 107.41898 30.251522 107.43698 30.135487 107.45508 30.008789 C 107.53178 29.561312 107.60208 29.12552 107.66602 28.703613 C 107.74276 28.281706 107.79429 27.911423 107.81982 27.591797 C 107.8582 27.06761 107.89575 26.544207 107.93408 26.02002 C 107.98525 25.495832 108.03051 24.989738 108.06885 24.503906 C 108.12001 24.005287 108.16528 23.552186 108.20361 23.143066 C 108.25472 22.72116 108.29227 22.357133 108.31787 22.050293 L 105.09668 22.050293 z M 116.54004 22.050293 C 116.43776 22.497766 116.31593 22.983626 116.17529 23.507813 C 116.04745 24.031999 115.9131 24.594412 115.77246 25.195313 C 115.63183 25.783425 115.47245 26.416142 115.29346 27.09375 C 115.12725 27.758573 114.94763 28.474108 114.75586 29.241211 C 114.51295 30.264015 114.28326 31.196714 114.06592 32.040527 C 113.86135 32.88434 113.66922 33.671642 113.49023 34.400391 C 113.29845 35.116353 113.11884 35.792876 112.95264 36.432129 L 118.51465 36.432129 C 118.56578 36.227568 118.62357 35.985373 118.6875 35.704102 C 118.7642 35.410046 118.8345 35.135096 118.89844 34.879395 C 118.96236 34.598123 119.03267 34.316916 119.10938 34.035645 C 119.18609 33.754373 119.25014 33.518436 119.30127 33.32666 C 119.05836 33.32666 118.8147 33.332916 118.57178 33.345703 L 117.84375 33.345703 L 117.13477 33.345703 L 116.48145 33.345703 L 116.23682 33.345703 C 116.25472 33.275148 116.27124 33.20573 116.28955 33.134766 C 116.39183 32.725644 116.49489 32.303833 116.59717 31.869141 C 116.71223 31.434449 116.8278 30.973625 116.94287 30.487793 C 116.95764 30.431663 116.97205 30.371413 116.98682 30.314941 L 117.40283 30.314941 L 118.07373 30.314941 L 118.72559 30.314941 C 118.94293 30.314941 119.15384 30.321198 119.3584 30.333984 C 119.56296 30.333984 119.7551 30.340241 119.93408 30.353027 C 119.98522 30.122896 120.04926 29.847947 120.12598 29.52832 C 120.21547 29.195909 120.29829 28.870896 120.375 28.55127 C 120.4645 28.218859 120.5348 27.950167 120.58594 27.745605 C 120.39416 27.758385 120.19577 27.770905 119.99121 27.783691 L 119.3584 27.783691 C 119.14106 27.783691 118.91763 27.789948 118.6875 27.802734 L 118.0166 27.802734 L 117.63721 27.802734 L 117.93896 26.594238 L 118.24658 25.328613 C 118.28169 25.17939 118.31694 25.035412 118.35205 24.887695 L 118.59229 24.887695 L 119.24414 24.887695 C 119.47427 24.887695 119.70396 24.893952 119.93408 24.906738 L 120.66211 24.906738 C 120.90503 24.906738 121.14869 24.912995 121.3916 24.925781 C 121.44273 24.74679 121.50052 24.517112 121.56445 24.23584 C 121.64117 23.954567 121.70521 23.685876 121.75635 23.430176 C 121.82027 23.187263 121.88431 22.938805 121.94824 22.683105 C 122.01219 22.427399 122.06225 22.216493 122.10059 22.050293 L 116.54004 22.050293 z M 124.66553 22.050293 C 124.56325 22.510553 124.44768 23.002669 124.31982 23.526855 C 124.19197 24.051042 124.05763 24.613456 123.91699 25.214355 C 123.77636 25.802468 123.61698 26.435185 123.43799 27.112793 C 123.27178 27.777616 123.09216 28.493151 122.90039 29.260254 C 122.65747 30.270273 122.4278 31.196714 122.21045 32.040527 C 122.00589 32.871556 121.81376 33.646342 121.63477 34.362305 C 121.44299 35.078268 121.25858 35.767306 121.07959 36.432129 L 124.62744 36.432129 C 125.13884 36.432129 125.5982 36.375807 126.00732 36.260742 C 126.41644 36.132892 126.78673 35.915728 127.11914 35.608887 C 127.46433 35.302046 127.78455 34.878769 128.07861 34.341797 C 128.37267 33.792039 128.66013 33.103001 128.94141 32.271973 C 129.22268 31.440944 129.50389 30.442737 129.78516 29.279297 C 130.092 28.064717 130.29664 27.041478 130.39893 26.210449 C 130.50122 25.366635 130.50746 24.6776 130.41797 24.140625 C 130.34126 23.590872 130.18188 23.167595 129.93896 22.873535 C 129.70883 22.566695 129.4026 22.355789 129.01904 22.240723 C 128.63549 22.112876 128.19344 22.050293 127.69482 22.050293 L 124.66553 22.050293 z M 134.0376 22.050293 C 133.92253 22.523339 133.8007 23.021712 133.67285 23.545898 C 133.55779 24.057298 133.42344 24.607198 133.27002 25.195313 C 133.12938 25.783425 132.97 26.416142 132.79102 27.09375 C 132.62481 27.758573 132.4452 28.474108 132.25342 29.241211 C 132.06164 30.008314 131.88349 30.723849 131.71729 31.388672 C 131.56387 32.053495 131.41554 32.679954 131.2749 33.268066 C 131.12148 33.856179 130.98087 34.412337 130.85303 34.936523 C 130.71239 35.447926 130.57951 35.946297 130.45166 36.432129 L 133.09717 36.432129 C 133.21223 35.946297 133.33406 35.441667 133.46191 34.91748 C 133.58977 34.393293 133.72411 33.843394 133.86475 33.268066 C 134.00538 32.679954 134.1585 32.053495 134.32471 31.388672 C 134.49091 30.723849 134.67053 30.008314 134.8623 29.241211 C 135.05408 28.474108 135.23223 27.758573 135.39844 27.09375 C 135.56464 26.416142 135.71777 25.783425 135.8584 25.195313 C 136.01182 24.607198 136.16014 24.057298 136.30078 23.545898 C 136.44141 23.021712 136.56804 22.523339 136.68311 22.050293 L 134.0376 22.050293 z M 140.49609 22.050293 C 140.41938 22.293206 140.28504 22.669753 140.09326 23.181152 C 139.91428 23.692558 139.69711 24.300241 139.44141 25.003418 C 139.1857 25.706596 138.9045 26.467401 138.59766 27.285645 C 138.3036 28.103888 137.99736 28.941253 137.67773 29.797852 C 137.37089 30.654451 137.06465 31.491815 136.75781 32.310059 C 136.46376 33.128302 136.18108 33.895366 135.9126 34.611328 C 135.64411 35.314506 135.40817 35.920727 135.20361 36.432129 L 137.83154 36.432129 C 137.92104 36.112503 138.05538 35.671917 138.23438 35.109375 C 138.41159 34.552399 138.61493 33.918312 138.84229 33.210938 L 139.32715 33.210938 L 139.80615 33.210938 L 140.28516 33.210938 L 140.74658 33.210938 C 140.70184 33.474126 140.65656 33.73245 140.61182 33.978516 C 140.50954 34.541058 140.4142 35.033171 140.32471 35.455078 C 140.24799 35.876985 140.18395 36.201998 140.13281 36.432129 L 142.83691 36.432129 C 142.88805 35.920727 142.9521 35.314506 143.02881 34.611328 C 143.1183 33.895366 143.21364 33.128302 143.31592 32.310059 C 143.4182 31.491815 143.51979 30.654451 143.62207 29.797852 C 143.73714 28.941253 143.84645 28.110146 143.94873 27.304688 C 144.05101 26.486444 144.14634 25.725639 144.23584 25.022461 C 144.33811 24.319286 144.42239 23.711601 144.48633 23.200195 C 144.56301 22.688796 144.61307 22.305993 144.63867 22.050293 L 140.49609 22.050293 z M 142.15137 23.641113 L 142.24512 23.641113 C 142.22989 23.726566 142.22115 23.775642 142.2041 23.871094 C 142.15297 24.229074 142.09518 24.613339 142.03125 25.022461 C 141.9801 25.418797 141.92857 25.795339 141.87744 26.15332 C 141.78795 26.754218 141.69261 27.393193 141.59033 28.070801 C 141.48805 28.748409 141.37874 29.438912 141.26367 30.14209 C 141.22526 30.372574 141.18636 30.588244 141.14795 30.814453 L 140.87988 30.814453 L 140.40088 30.814453 L 139.88232 30.814453 L 139.64063 30.814453 C 139.91264 30.034384 140.17894 29.253702 140.43896 28.473633 C 140.72024 27.65539 140.98893 26.888327 141.24463 26.172363 C 141.39805 25.788812 141.54491 25.399755 141.68555 25.003418 C 141.82618 24.594296 141.95427 24.216289 142.06934 23.871094 C 142.10343 23.775616 142.12091 23.726587 142.15137 23.641113 z M 127.15869 24.541992 C 127.3249 24.541992 127.4655 24.574745 127.58057 24.638672 C 127.69564 24.702597 127.77846 24.824427 127.82959 25.003418 C 127.89352 25.169624 127.91856 25.424335 127.90576 25.769531 C 127.89298 26.114728 127.82893 26.569293 127.71387 27.131836 C 127.61159 27.694378 127.45847 28.397397 127.25391 29.241211 C 127.04935 30.046669 126.86347 30.724657 126.69727 31.274414 C 126.54385 31.811386 126.39698 32.245713 126.25635 32.578125 C 126.11571 32.897751 125.96885 33.139947 125.81543 33.306152 C 125.6748 33.472357 125.52793 33.587929 125.37451 33.651855 C 125.22109 33.702995 125.0492 33.728027 124.85742 33.728027 L 124.62744 33.728027 C 124.55073 33.715241 124.4727 33.708984 124.396 33.708984 C 124.36897 33.704479 124.34246 33.703113 124.31543 33.700195 C 124.37672 33.426879 124.43665 33.155554 124.51172 32.827148 C 124.62678 32.379672 124.75487 31.862526 124.89551 31.274414 C 125.04893 30.686301 125.22082 30.02083 125.4126 29.279297 C 125.54045 28.742325 125.6748 28.192425 125.81543 27.629883 C 125.95607 27.06734 126.09042 26.523699 126.21826 25.999512 C 126.3586 25.476456 126.48572 24.999377 126.60059 24.56543 C 126.62609 24.564663 126.65387 24.5625 126.67822 24.5625 C 126.83165 24.549713 126.99249 24.541992 127.15869 24.541992 z M 49.618652 29.677734 L 55.715332 29.677734 C 57.389289 29.677734 58.653903 29.997478 59.48291 30.632813 C 60.295975 31.233018 60.708984 32.27523 60.708984 33.728027 C 60.708984 35.18077 60.295975 36.237377 59.48291 36.856934 C 58.657751 37.468574 57.389289 37.77832 55.715332 37.77832 L 49.618652 37.77832 L 49.618652 29.677734 z M 53.490234 52.894043 C 53.217673 52.894043 52.969505 52.929485 52.746094 53.000977 C 52.527151 53.068 52.332878 53.171543 52.163086 53.310059 C 51.993293 53.444105 51.850061 53.612822 51.733887 53.818359 C 51.617713 54.01943 51.529766 54.256247 51.47168 54.528809 C 51.413593 54.80137 51.385254 55.106289 51.385254 55.441406 C 51.385254 55.856951 51.429191 56.229898 51.518555 56.560547 C 51.612388 56.886727 51.747126 57.163234 51.921387 57.391113 C 52.100115 57.614524 52.317088 57.786096 52.571777 57.906738 C 52.830934 58.022912 53.125895 58.081055 53.456543 58.081055 C 53.715699 58.081055 53.941167 58.055573 54.133301 58.001953 C 54.329903 57.952803 54.497228 57.876207 54.635742 57.773438 C 54.778725 57.670668 54.89501 57.543032 54.984375 57.391113 C 55.073742 57.239193 55.140379 57.063374 55.185059 56.862305 C 55.234212 56.656766 55.264016 56.425587 55.272949 56.170898 C 55.281889 55.916209 55.277639 55.636847 55.259766 55.333008 C 55.130188 55.337474 54.994057 55.340332 54.851074 55.340332 L 54.448242 55.340332 L 54.112793 55.340332 L 53.717285 55.340332 C 53.569834 55.335859 53.420963 55.331615 53.269043 55.327148 C 53.27351 55.371831 53.274902 55.42287 53.274902 55.480957 L 53.274902 55.662598 L 53.274902 55.728516 L 53.274902 55.809082 C 53.274902 55.835889 53.27351 55.858592 53.269043 55.876465 L 53.509277 55.876465 C 53.598641 55.871998 53.693691 55.869141 53.791992 55.869141 L 54.086426 55.869141 C 54.189195 55.864674 54.285635 55.863281 54.375 55.863281 L 54.569824 55.863281 C 54.579535 56.099523 54.575109 56.306422 54.555176 56.48584 C 54.528366 56.722656 54.47308 56.912681 54.388184 57.055664 C 54.307756 57.194179 54.191471 57.297723 54.039551 57.364746 C 53.8921 57.427299 53.706321 57.458496 53.48291 57.458496 C 53.272904 57.458496 53.082878 57.420198 52.913086 57.344238 C 52.743293 57.26381 52.598669 57.143278 52.478027 56.982422 C 52.361851 56.817097 52.272514 56.607227 52.209961 56.352539 C 52.147408 56.097851 52.116211 55.795787 52.116211 55.447266 C 52.116211 55.089808 52.147408 54.7906 52.209961 54.549316 C 52.276984 54.303564 52.367713 54.106436 52.483887 53.958984 C 52.604529 53.807065 52.747761 53.697883 52.913086 53.630859 C 53.07841 53.563836 53.267044 53.53125 53.477051 53.53125 C 53.718335 53.53125 53.918246 53.570939 54.079102 53.651367 C 54.239957 53.727327 54.359099 53.843612 54.435059 54 C 54.515487 54.156388 54.555176 54.346413 54.555176 54.569824 L 54.555176 54.643066 L 54.555176 54.717773 C 54.555176 54.744587 54.553783 54.770068 54.549316 54.796875 C 54.598468 54.792408 54.653755 54.791016 54.716309 54.791016 L 54.916992 54.791016 C 54.988484 54.791016 55.05373 54.792408 55.111816 54.796875 L 55.265625 54.796875 C 55.270092 54.738788 55.272949 54.690604 55.272949 54.650391 L 55.272949 54.502441 C 55.272949 54.332649 55.250246 54.169571 55.205566 54.013184 C 55.165352 53.856796 55.100107 53.712172 55.010742 53.578125 C 54.925846 53.43961 54.815273 53.320469 54.676758 53.222168 C 54.538243 53.119399 54.369453 53.038555 54.172852 52.980469 C 53.97625 52.922382 53.749391 52.894043 53.490234 52.894043 z M 0 52.974609 C 0.0089399911 53.184616 0.01604115 53.417187 0.020507813 53.671875 C 0.024974475 53.926563 0.026367188 54.20307 0.026367188 54.502441 C 0.03083385 54.801812 0.033691406 55.130824 0.033691406 55.488281 C 0.033691406 56.02 0.03083385 56.486532 0.026367188 56.888672 C 0.021900525 57.290812 0.013406653 57.660903 0 58.000488 L 2.0039063 58.000488 C 2.2854046 58.000488 2.5293255 57.975007 2.7348633 57.921387 C 2.9448697 57.867768 3.1192973 57.786925 3.2578125 57.679688 C 3.396327 57.567982 3.501262 57.427605 3.5727539 57.257813 C 3.6442452 57.083552 3.6796875 56.87932 3.6796875 56.646973 C 3.6796875 56.459308 3.652741 56.29623 3.5991211 56.157715 C 3.5499705 56.014732 3.4762303 55.897055 3.3779297 55.803223 C 3.2840971 55.709391 3.1635645 55.635651 3.0161133 55.582031 C 2.8999394 55.537351 2.7553152 55.507547 2.5810547 55.494141 C 2.5423503 55.490066 2.5011953 55.487496 2.4594727 55.483887 L 2.4594727 55.45166 C 2.512695 55.446616 2.5639473 55.440098 2.6132813 55.434082 C 2.7964784 55.407273 2.9439582 55.364727 3.0556641 55.306641 C 3.1807739 55.244085 3.2843182 55.168954 3.3647461 55.07959 C 3.4451747 54.985757 3.5047086 54.870863 3.5449219 54.736816 C 3.5851352 54.60277 3.6064453 54.442548 3.6064453 54.254883 C 3.6064453 54.022535 3.572395 53.825407 3.5053711 53.664551 C 3.4428165 53.499226 3.3421285 53.367344 3.2036133 53.269043 C 3.0650988 53.166271 2.8906705 53.092532 2.6806641 53.047852 C 2.4706576 52.998705 2.2210984 52.974609 1.9306641 52.974609 L 0 52.974609 z M 9.6826172 52.974609 C 9.6915505 53.180147 9.6972656 53.39712 9.6972656 53.625 C 9.7017323 53.848411 9.703125 54.113568 9.703125 54.421875 C 9.703125 54.569326 9.7017323 54.739507 9.6972656 54.931641 C 9.6972656 55.119306 9.6944081 55.317826 9.6899414 55.527832 L 9.6899414 56.131348 C 9.6899414 56.372631 9.7126443 56.595243 9.7573242 56.800781 C 9.8064742 57.001851 9.8773582 57.181991 9.9711914 57.338379 C 10.069492 57.494767 10.192881 57.628041 10.340332 57.739746 C 10.487784 57.851452 10.662211 57.936542 10.863281 57.994629 C 11.064351 58.052716 11.289819 58.081055 11.540039 58.081055 C 11.794728 58.081055 12.020195 58.052716 12.216797 57.994629 C 12.417867 57.936542 12.592295 57.851452 12.739746 57.739746 C 12.887197 57.628041 13.00773 57.494767 13.101563 57.338379 C 13.199866 57.181991 13.27075 57.001851 13.31543 56.800781 C 13.364583 56.595243 13.390137 56.372631 13.390137 56.131348 C 13.390137 55.934746 13.387279 55.73337 13.382813 55.527832 C 13.378346 55.317826 13.374096 55.119306 13.369629 54.931641 L 13.369629 54.421875 C 13.369629 54.113568 13.372486 53.848411 13.376953 53.625 C 13.381426 53.39712 13.387063 53.180147 13.395996 52.974609 L 12.638672 52.974609 C 12.643139 53.081847 12.645996 53.215121 12.645996 53.375977 C 12.650463 53.532364 12.651855 53.705401 12.651855 53.893066 C 12.656322 54.080732 12.65918 54.275004 12.65918 54.476074 L 12.65918 55.072266 C 12.663646 55.268867 12.666504 55.454646 12.666504 55.628906 L 12.666504 56.090332 C 12.666504 56.398639 12.623958 56.652519 12.539063 56.849121 C 12.458635 57.045723 12.335246 57.190347 12.169922 57.28418 C 12.004598 57.378012 11.801831 57.424805 11.560547 57.424805 C 11.310326 57.424805 11.098992 57.378012 10.929199 57.28418 C 10.759407 57.190347 10.63038 57.045723 10.541016 56.849121 C 10.451651 56.652519 10.407715 56.398639 10.407715 56.090332 L 10.407715 55.628906 L 10.407715 55.072266 C 10.412182 54.875664 10.413574 54.678535 10.413574 54.481934 C 10.418041 54.280864 10.420898 54.086591 10.420898 53.898926 C 10.425365 53.706792 10.429615 53.532364 10.434082 53.375977 C 10.438549 53.219589 10.442799 53.086315 10.447266 52.974609 L 9.6826172 52.974609 z M 19.709473 52.974609 C 19.713939 53.144402 19.716797 53.320221 19.716797 53.503418 C 19.721264 53.686614 19.722656 53.880887 19.722656 54.086426 C 19.727123 54.287496 19.72998 54.504469 19.72998 54.736816 L 19.72998 55.488281 L 19.72998 56.238281 C 19.72998 56.466161 19.727123 56.683134 19.722656 56.888672 C 19.722656 57.089742 19.721264 57.281158 19.716797 57.464355 C 19.716797 57.647552 19.713939 57.826227 19.709473 58.000488 L 20.474121 58.000488 C 20.469654 57.826227 20.465404 57.647552 20.460938 57.464355 C 20.456471 57.27669 20.453613 57.082417 20.453613 56.881348 L 20.453613 56.232422 L 20.453613 55.480957 L 20.453613 54.730957 L 20.453613 54.080566 C 20.453613 53.875028 20.456471 53.682146 20.460938 53.503418 C 20.465404 53.320221 20.469654 53.144402 20.474121 52.974609 L 19.709473 52.974609 z M 26.748047 52.974609 C 26.752514 53.122061 26.753906 53.286529 26.753906 53.469727 C 26.758373 53.648455 26.76123 53.844193 26.76123 54.054199 C 26.765697 54.264206 26.76709 54.489673 26.76709 54.730957 L 26.76709 55.494141 L 26.76709 56.466797 C 26.76709 56.761699 26.765697 57.033959 26.76123 57.28418 C 26.76123 57.5344 26.75698 57.772609 26.748047 58.000488 L 28.275879 58.000488 C 28.584187 58.000488 28.859302 57.969292 29.100586 57.906738 C 29.34187 57.844183 29.55174 57.750598 29.730469 57.625488 C 29.909197 57.49591 30.056678 57.331441 30.172852 57.130371 C 30.289026 56.929301 30.375507 56.688236 30.433594 56.406738 C 30.49168 56.120772 30.521484 55.796008 30.521484 55.434082 C 30.521484 55.067688 30.490288 54.748636 30.427734 54.476074 C 30.369648 54.199044 30.278845 53.966474 30.158203 53.778809 C 30.037561 53.586675 29.888689 53.432092 29.709961 53.315918 C 29.531232 53.195277 29.322753 53.108796 29.085938 53.055176 C 28.85359 53.001556 28.592681 52.974609 28.302246 52.974609 L 26.748047 52.974609 z M 36.572754 52.974609 C 36.581687 53.130997 36.585938 53.32527 36.585938 53.557617 C 36.590404 53.785497 36.590404 54.060613 36.585938 54.382324 L 36.585938 55.488281 C 36.585938 55.756375 36.584545 56.02014 36.580078 56.279297 L 36.580078 57.00293 C 36.580078 57.226341 36.577221 57.424861 36.572754 57.599121 L 36.572754 58.000488 L 39.166992 58.000488 C 39.166992 57.942402 39.164135 57.887116 39.159668 57.833496 L 39.159668 57.65918 L 39.159668 57.492188 C 39.164135 57.434102 39.166992 57.37735 39.166992 57.32373 C 39.001668 57.328197 38.82724 57.333912 38.644043 57.338379 C 38.465314 57.338379 38.283783 57.339772 38.100586 57.344238 L 37.584961 57.344238 L 37.311035 57.344238 C 37.310624 57.329539 37.311494 57.326141 37.311035 57.310547 C 37.311035 57.158627 37.308178 56.982808 37.303711 56.781738 C 37.303711 56.580668 37.300853 56.366552 37.296387 56.138672 L 37.296387 55.475098 L 37.296387 54.796875 L 37.296387 54.194824 C 37.300853 54.007158 37.306568 53.836978 37.311035 53.685059 C 37.315502 53.528671 37.319752 53.392541 37.324219 53.276367 C 37.328685 53.155725 37.332936 53.055037 37.337402 52.974609 L 36.572754 52.974609 z M 61.350586 52.974609 C 61.359526 53.180147 61.36377 53.39712 61.36377 53.625 C 61.368236 53.848411 61.371094 54.113568 61.371094 54.421875 C 61.371094 54.569326 61.368236 54.739507 61.36377 54.931641 C 61.36377 55.119306 61.362377 55.317826 61.35791 55.527832 L 61.35791 56.131348 C 61.35791 56.372631 61.380613 56.595243 61.425293 56.800781 C 61.474443 57.001851 61.545327 57.181991 61.63916 57.338379 C 61.737461 57.494767 61.86085 57.628041 62.008301 57.739746 C 62.155752 57.851452 62.33018 57.936542 62.53125 57.994629 C 62.73232 58.052716 62.957787 58.081055 63.208008 58.081055 C 63.462697 58.081055 63.688164 58.052716 63.884766 57.994629 C 64.085836 57.936542 64.260264 57.851452 64.407715 57.739746 C 64.555166 57.628041 64.675699 57.494767 64.769531 57.338379 C 64.867834 57.181991 64.938718 57.001851 64.983398 56.800781 C 65.032552 56.595243 65.056641 56.372631 65.056641 56.131348 C 65.056641 55.934746 65.055248 55.73337 65.050781 55.527832 C 65.046308 55.317826 65.042064 55.119306 65.037598 54.931641 L 65.037598 54.421875 C 65.037598 54.113568 65.03899 53.848411 65.043457 53.625 C 65.04793 53.39712 65.055032 53.180147 65.063965 52.974609 L 64.306641 52.974609 C 64.311107 53.081847 64.313965 53.215121 64.313965 53.375977 C 64.318432 53.532364 64.319824 53.705401 64.319824 53.893066 C 64.324291 54.080732 64.327148 54.275004 64.327148 54.476074 L 64.327148 55.072266 C 64.331615 55.268867 64.333008 55.454646 64.333008 55.628906 L 64.333008 56.090332 C 64.333008 56.398639 64.290462 56.652519 64.205566 56.849121 C 64.125138 57.045723 64.003215 57.190347 63.837891 57.28418 C 63.672567 57.378012 63.468335 57.424805 63.227051 57.424805 C 62.97683 57.424805 62.76696 57.378012 62.597168 57.28418 C 62.427375 57.190347 62.298349 57.045723 62.208984 56.849121 C 62.11962 56.652519 62.074219 56.398639 62.074219 56.090332 L 62.074219 55.628906 L 62.074219 55.072266 C 62.078685 54.875664 62.081543 54.678535 62.081543 54.481934 C 62.08601 54.280864 62.088867 54.086591 62.088867 53.898926 C 62.093341 53.706792 62.097584 53.532364 62.102051 53.375977 C 62.106517 53.219589 62.110768 53.086315 62.115234 52.974609 L 61.350586 52.974609 z M 71.377441 52.974609 C 71.381908 53.144402 71.384766 53.320221 71.384766 53.503418 C 71.389232 53.686614 71.390625 53.880887 71.390625 54.086426 C 71.395092 54.287496 71.397949 54.504469 71.397949 54.736816 L 71.397949 55.488281 L 71.397949 56.238281 C 71.397949 56.466161 71.395092 56.683134 71.390625 56.888672 C 71.390625 57.089742 71.389232 57.281158 71.384766 57.464355 C 71.384766 57.647552 71.381908 57.826227 71.377441 58.000488 L 72.14209 58.000488 C 72.137617 57.826227 72.133373 57.647552 72.128906 57.464355 C 72.12444 57.27669 72.121582 57.082417 72.121582 56.881348 L 72.121582 56.232422 L 72.121582 55.480957 L 72.121582 54.730957 L 72.121582 54.080566 C 72.121582 53.875028 72.12444 53.682146 72.128906 53.503418 C 72.13338 53.320221 72.137623 53.144402 72.14209 52.974609 L 71.377441 52.974609 z M 78.414551 52.974609 C 78.419017 53.122061 78.421875 53.286529 78.421875 53.469727 C 78.426342 53.648455 78.429199 53.844193 78.429199 54.054199 C 78.433666 54.264206 78.435059 54.489673 78.435059 54.730957 L 78.435059 55.494141 L 78.435059 56.466797 C 78.435059 56.761699 78.433666 57.033959 78.429199 57.28418 C 78.429199 57.5344 78.423491 57.772609 78.414551 58.000488 L 79.943848 58.000488 C 80.252155 58.000488 80.525805 57.969292 80.76709 57.906738 C 81.008374 57.844183 81.218244 57.750598 81.396973 57.625488 C 81.575701 57.49591 81.723182 57.331441 81.839355 57.130371 C 81.95553 56.929301 82.043476 56.688236 82.101563 56.406738 C 82.159649 56.120772 82.187988 55.796008 82.187988 55.434082 C 82.187988 55.067688 82.156792 54.748636 82.094238 54.476074 C 82.036152 54.199044 81.946814 53.966474 81.826172 53.778809 C 81.705529 53.586675 81.556658 53.432092 81.37793 53.315918 C 81.199201 53.195277 80.990722 53.108796 80.753906 53.055176 C 80.521558 53.001556 80.260649 52.974609 79.970215 52.974609 L 78.414551 52.974609 z M 88.240723 52.974609 C 88.249656 53.130997 88.253906 53.32527 88.253906 53.557617 C 88.258373 53.785497 88.258373 54.060613 88.253906 54.382324 L 88.253906 55.488281 C 88.253906 55.756375 88.252514 56.02014 88.248047 56.279297 L 88.248047 57.00293 C 88.248047 57.226341 88.245189 57.424861 88.240723 57.599121 L 88.240723 58.000488 L 90.834961 58.000488 C 90.834961 57.942402 90.832103 57.887116 90.827637 57.833496 L 90.827637 57.65918 L 90.827637 57.492188 C 90.832103 57.434102 90.834961 57.37735 90.834961 57.32373 C 90.669636 57.328197 90.495209 57.333912 90.312012 57.338379 C 90.133283 57.338379 89.951752 57.339772 89.768555 57.344238 L 89.25293 57.344238 L 88.979004 57.344238 C 88.978592 57.329528 88.977998 57.326153 88.977539 57.310547 C 88.977539 57.158627 88.976146 56.982808 88.97168 56.781738 C 88.97168 56.580668 88.968822 56.366552 88.964355 56.138672 L 88.964355 55.475098 L 88.964355 54.796875 L 88.964355 54.194824 C 88.968822 54.007158 88.973072 53.836978 88.977539 53.685059 C 88.982006 53.528671 88.986256 53.392541 88.990723 53.276367 C 88.995189 53.155725 89.000904 53.055037 89.005371 52.974609 L 88.240723 52.974609 z M 103.36816 52.974609 C 103.3771 53.300789 103.38135 53.662386 103.38135 54.060059 L 103.38135 55.480957 C 103.38135 56.012675 103.37869 56.47496 103.37402 56.868164 C 103.37402 57.261368 103.36977 57.638562 103.36084 58.000488 L 104.02734 58.000488 C 104.02308 57.727927 104.01736 57.475512 104.0127 57.243164 C 104.0127 57.006348 104.0115 56.775242 104.00684 56.547363 C 104.00217 56.315016 103.99951 56.078198 103.99951 55.836914 L 103.99951 55.032715 C 103.99951 54.898668 103.99526 54.759682 103.98633 54.616699 C 103.98206 54.469248 103.97781 54.323159 103.97314 54.180176 C 103.96888 54.032725 103.96316 53.885245 103.9585 53.737793 C 103.95789 53.718732 103.95756 53.700966 103.95703 53.682129 L 103.99072 53.677734 C 103.99141 53.680205 103.9915 53.682581 103.99219 53.685059 C 104.02795 53.810168 104.06625 53.939196 104.10645 54.073242 C 104.15115 54.202821 104.19508 54.334703 104.23975 54.46875 C 104.28445 54.598329 104.32985 54.723107 104.37451 54.84375 L 105.5874 58.000488 L 105.92285 58.000488 L 107.11523 54.897949 C 107.15547 54.781775 107.19662 54.658386 107.23682 54.528809 C 107.28151 54.394761 107.32406 54.258632 107.36426 54.120117 C 107.40895 53.981602 107.44864 53.845472 107.48438 53.711426 C 107.48648 53.704419 107.48817 53.697888 107.49023 53.690918 L 107.52393 53.695313 C 107.52214 53.74522 107.52054 53.794228 107.51807 53.846191 C 107.5136 54.029389 107.50649 54.216558 107.49756 54.408691 C 107.49289 54.596357 107.49023 54.777888 107.49023 54.952148 C 107.49023 55.238115 107.48904 55.507519 107.48438 55.762207 C 107.48437 56.016896 107.48172 56.265064 107.47705 56.506348 C 107.47278 56.743163 107.46853 56.984228 107.46387 57.22998 C 107.4594 57.475732 107.45229 57.732395 107.44336 58.000488 L 108.1875 58.000488 C 108.17877 57.638562 108.17166 57.261368 108.16699 56.868164 C 108.16233 56.47496 108.15967 56.012675 108.15967 55.480957 C 108.15967 54.931366 108.16233 54.45773 108.16699 54.060059 C 108.17126 53.662386 108.17551 53.300789 108.18018 52.974609 L 107.30859 52.974609 C 107.26391 53.099719 107.20013 53.269901 107.11523 53.484375 C 107.0348 53.69885 106.94122 53.941305 106.83398 54.213867 C 106.73121 54.48196 106.62057 54.768427 106.50439 55.072266 L 106.15576 55.970215 C 106.11106 56.086389 106.06427 56.211168 106.01514 56.345215 C 105.97044 56.479261 105.9265 56.614 105.88184 56.748047 C 105.86314 56.808257 105.84339 56.868012 105.82471 56.928223 L 105.79688 56.928223 C 105.77788 56.865595 105.75674 56.801356 105.73389 56.734863 C 105.68919 56.591881 105.6424 56.450039 105.59326 56.311523 C 105.54857 56.173008 105.50602 56.052476 105.46582 55.949707 C 105.34518 55.645868 105.22465 55.342414 105.104 55.038574 C 104.98783 54.734735 104.87579 54.448269 104.76855 54.180176 C 104.66131 53.907614 104.56773 53.666549 104.4873 53.456543 C 104.40686 53.246537 104.34447 53.086315 104.2998 52.974609 L 103.36816 52.974609 z M 114.50684 52.974609 C 114.5115 53.113124 114.51416 53.273346 114.51416 53.456543 C 114.51883 53.635272 114.52148 53.832401 114.52148 54.046875 L 114.52148 54.723633 L 114.52148 55.488281 L 114.52148 56.47998 C 114.52148 56.779351 114.51883 57.055858 114.51416 57.310547 C 114.51416 57.565235 114.5115 57.79495 114.50684 58.000488 L 117.74414 58.000488 L 117.74414 57.84668 L 117.74414 57.679688 L 117.74414 57.492188 L 117.74414 57.32373 C 117.55647 57.328197 117.36645 57.333912 117.17432 57.338379 L 116.61182 57.338379 C 116.42862 57.338379 116.24709 57.339772 116.06836 57.344238 L 115.55273 57.344238 L 115.23047 57.344238 L 115.23047 57.070313 L 115.23047 56.57373 L 115.23047 56.003906 L 115.23047 55.762207 L 115.62598 55.762207 C 115.80917 55.762207 115.99071 55.765065 116.16943 55.769531 L 116.69824 55.769531 C 116.8725 55.769531 117.04268 55.770924 117.20801 55.775391 C 117.3778 55.775391 117.53664 55.778248 117.68408 55.782715 L 117.68408 55.587891 L 117.68408 55.347656 C 117.68875 55.267231 117.69141 55.201985 117.69141 55.152832 C 117.53949 55.157305 117.3778 55.161549 117.20801 55.166016 C 117.04269 55.166016 116.8725 55.168873 116.69824 55.17334 L 116.17676 55.17334 L 115.6333 55.17334 L 115.23047 55.17334 L 115.23047 54.991699 L 115.23047 54.496582 C 115.23514 54.322322 115.23779 54.152141 115.23779 53.986816 L 115.23779 53.617676 L 115.56006 53.617676 L 116.0625 53.617676 C 116.24123 53.617676 116.4213 53.620533 116.60449 53.625 L 117.16846 53.625 C 117.36059 53.625 117.55201 53.626393 117.74414 53.630859 L 117.74414 53.469727 L 117.74414 53.276367 L 117.74414 53.122559 L 117.74414 52.974609 L 114.50684 52.974609 z M 123.86279 52.974609 C 123.86746 53.122061 123.87012 53.286529 123.87012 53.469727 C 123.87478 53.648455 123.87744 53.844193 123.87744 54.054199 C 123.88211 54.264206 123.88477 54.489673 123.88477 54.730957 L 123.88477 55.494141 L 123.88477 56.466797 C 123.88477 56.761699 123.88211 57.033959 123.87744 57.28418 C 123.87744 57.5344 123.87319 57.772609 123.86426 58.000488 L 125.39063 58.000488 L 125.39209 58.000488 C 125.69979 58.000388 125.97443 57.969191 126.21533 57.906738 C 126.45661 57.844183 126.66648 57.750598 126.84521 57.625488 C 127.02394 57.49591 127.17142 57.331441 127.2876 57.130371 C 127.40379 56.929301 127.49174 56.688236 127.5498 56.406738 C 127.60787 56.120772 127.63623 55.796008 127.63623 55.434082 C 127.63623 55.067688 127.60501 54.748636 127.54248 54.476074 C 127.48439 54.199044 127.39505 53.966474 127.27441 53.778809 C 127.15377 53.586675 127.00491 53.432092 126.82617 53.315918 C 126.64745 53.195277 126.43897 53.108796 126.20215 53.055176 C 125.9698 53.001556 125.70889 52.974609 125.41846 52.974609 L 123.86279 52.974609 z M 133.68311 52.974609 C 133.68777 53.144402 133.68896 53.320221 133.68896 53.503418 C 133.69363 53.686614 133.69629 53.880887 133.69629 54.086426 C 133.70096 54.287496 133.70361 54.504469 133.70361 54.736816 L 133.70361 55.488281 L 133.70361 56.238281 C 133.70361 56.466161 133.70096 56.683134 133.69629 56.888672 C 133.69629 57.089742 133.69363 57.281158 133.68896 57.464355 C 133.68896 57.647552 133.68777 57.826227 133.68311 58.000488 L 134.44629 58.000488 C 134.44202 57.826227 134.43777 57.647552 134.43311 57.464355 C 134.42844 57.27669 134.42578 57.082417 134.42578 56.881348 L 134.42578 56.232422 L 134.42578 55.480957 L 134.42578 54.730957 L 134.42578 54.080566 C 134.42578 53.875028 134.42844 53.682146 134.43311 53.503418 C 134.43737 53.320221 134.44162 53.144402 134.44629 52.974609 L 133.68311 52.974609 z M 141.83057 52.974609 C 141.80373 53.068442 141.7598 53.211675 141.69727 53.403809 C 141.63918 53.595942 141.56683 53.818554 141.48193 54.073242 C 141.40151 54.327931 141.31217 54.600191 141.21387 54.890625 C 141.12003 55.181059 141.0222 55.47602 140.91943 55.775391 C 140.82113 56.074762 140.72469 56.365475 140.63086 56.646973 C 140.53703 56.924002 140.45054 57.180665 140.37012 57.41748 C 140.28967 57.649828 140.22018 57.8441 140.16211 58.000488 L 140.9458 58.000488 C 140.97263 57.893251 141.01518 57.741524 141.07324 57.544922 C 141.13134 57.34832 141.19797 57.125709 141.27393 56.875488 C 141.28941 56.824467 141.30787 56.766491 141.32373 56.714355 L 141.375 56.714355 C 141.49564 56.709889 141.61478 56.707031 141.73096 56.707031 L 142.07227 56.707031 L 142.37402 56.707031 L 142.67578 56.707031 L 143.00391 56.707031 C 143.12008 56.707031 143.23637 56.709889 143.35254 56.714355 L 143.42725 56.714355 C 143.47197 56.860427 143.51448 57.002091 143.55322 57.13623 C 143.61132 57.332832 143.66236 57.507261 143.70703 57.65918 C 143.7517 57.806632 143.78291 57.92006 143.80078 58.000488 L 144.63867 58.000488 C 144.57612 57.826227 144.50238 57.62207 144.41748 57.385254 C 144.33259 57.14397 144.24185 56.881595 144.14355 56.600098 C 144.04525 56.318599 143.94457 56.030742 143.8418 55.73584 C 143.7435 55.436469 143.64566 55.145756 143.54736 54.864258 C 143.45353 54.578291 143.36558 54.310279 143.28516 54.060059 C 143.2047 53.80537 143.13382 53.587006 143.07129 53.403809 C 143.00872 53.216143 142.96193 53.07291 142.93066 52.974609 L 141.83057 52.974609 z M 142.36084 53.375977 L 142.38281 53.375977 C 142.39511 53.418315 142.40782 53.46215 142.4209 53.510742 C 142.4522 53.626916 142.49188 53.763046 142.54102 53.919434 C 142.59016 54.071353 142.65116 54.252884 142.72266 54.462891 C 142.78521 54.659492 142.85185 54.870754 142.92334 55.098633 C 142.99483 55.326513 143.06572 55.559083 143.13721 55.795898 C 143.17536 55.91483 143.21151 56.029318 143.24854 56.145996 C 143.17721 56.147049 143.10503 56.149088 143.03027 56.151855 L 142.68164 56.151855 L 142.37402 56.151855 L 142.05908 56.151855 L 141.69727 56.151855 C 141.62915 56.149333 141.56185 56.147094 141.49658 56.145996 C 141.50314 56.124588 141.50901 56.106043 141.51563 56.084473 C 141.60499 55.807443 141.69294 55.532327 141.77783 55.259766 C 141.86273 54.987204 141.94071 54.733398 142.01221 54.496582 C 142.08819 54.273171 142.15057 54.080289 142.19971 53.919434 C 142.24887 53.758577 142.28856 53.622447 142.31982 53.510742 C 142.33651 53.456492 142.34708 53.421458 142.36084 53.375977 z M 1.7753906 53.550293 C 2.0434837 53.550293 2.259066 53.572996 2.4199219 53.617676 C 2.5852464 53.662358 2.7057784 53.743201 2.7817383 53.859375 C 2.8621662 53.97108 2.9018555 54.129911 2.9018555 54.335449 C 2.9018555 54.523114 2.8621662 54.681945 2.7817383 54.811523 C 2.7057784 54.936633 2.5823902 55.03161 2.4125977 55.098633 C 2.2472732 55.16119 2.0260532 55.19524 1.7490234 55.199707 L 1.1923828 55.199707 C 1.0439837 55.196477 0.89486886 55.190613 0.74414063 55.185059 L 0.74414063 54.791016 L 0.74414063 54.180176 C 0.74860729 53.983574 0.75 53.804899 0.75 53.644043 C 0.75089659 53.611754 0.7520331 53.593605 0.75292969 53.563477 C 0.89989845 53.55945 1.0455915 53.557617 1.1865234 53.557617 C 1.4009979 53.553151 1.5966615 53.550293 1.7753906 53.550293 z M 28.302246 53.625 C 28.498848 53.625 28.676132 53.641988 28.83252 53.677734 C 28.993376 53.71348 29.130897 53.774478 29.24707 53.859375 C 29.367713 53.939803 29.4684 54.051841 29.548828 54.194824 C 29.629257 54.333339 29.690255 54.507767 29.730469 54.717773 C 29.775149 54.923312 29.796387 55.168624 29.796387 55.45459 C 29.796387 55.745025 29.775149 55.998831 29.730469 56.217773 C 29.690255 56.432249 29.629256 56.613779 29.548828 56.76123 C 29.472868 56.904214 29.372181 57.020499 29.24707 57.109863 C 29.126428 57.194761 28.983195 57.25715 28.817871 57.297363 C 28.657015 57.33311 28.474092 57.351563 28.268555 57.351563 L 28.020996 57.351563 L 27.786621 57.351563 C 27.71513 57.347089 27.638533 57.342846 27.558105 57.338379 C 27.539137 57.337325 27.516296 57.336503 27.496582 57.335449 C 27.493231 57.219067 27.490723 57.091932 27.490723 56.94873 L 27.490723 56.345215 L 27.490723 55.514648 L 27.490723 54.884766 L 27.490723 54.275391 C 27.495189 54.078789 27.500904 53.890155 27.505371 53.711426 C 27.50601 53.685897 27.506197 53.667377 27.506836 53.642578 C 27.600032 53.638185 27.694289 53.633586 27.79248 53.630859 C 27.953336 53.626393 28.123518 53.625 28.302246 53.625 z M 79.970215 53.625 C 80.166817 53.625 80.342636 53.641988 80.499023 53.677734 C 80.659879 53.71348 80.798865 53.774478 80.915039 53.859375 C 81.035682 53.939803 81.136369 54.051841 81.216797 54.194824 C 81.297225 54.333339 81.356759 54.507767 81.396973 54.717773 C 81.441653 54.923312 81.464355 55.168624 81.464355 55.45459 C 81.464355 55.745025 81.441653 55.998831 81.396973 56.217773 C 81.356759 56.432249 81.297225 56.613779 81.216797 56.76123 C 81.140837 56.904214 81.04015 57.020499 80.915039 57.109863 C 80.794397 57.194761 80.651164 57.25715 80.48584 57.297363 C 80.324983 57.33311 80.142061 57.351563 79.936523 57.351563 L 79.688965 57.351563 L 79.45459 57.351563 C 79.383099 57.347089 79.306502 57.342846 79.226074 57.338379 C 79.207106 57.337325 79.184265 57.336503 79.164551 57.335449 C 79.161199 57.219065 79.158691 57.091935 79.158691 56.94873 L 79.158691 56.345215 L 79.158691 55.514648 L 79.158691 54.884766 L 79.158691 54.275391 C 79.163158 54.078789 79.167408 53.890155 79.171875 53.711426 C 79.172514 53.6859 79.172701 53.667375 79.17334 53.642578 C 79.266898 53.63816 79.361855 53.633597 79.460449 53.630859 C 79.621305 53.626393 79.791486 53.625 79.970215 53.625 z M 125.41846 53.625 C 125.61506 53.625 125.79234 53.641988 125.94873 53.677734 C 126.10958 53.71348 126.24711 53.774478 126.36328 53.859375 C 126.48392 53.939803 126.58461 54.051841 126.66504 54.194824 C 126.74548 54.333339 126.80648 54.507767 126.84668 54.717773 C 126.89135 54.923312 126.9126 55.168624 126.9126 55.45459 C 126.9126 55.745025 126.89135 55.998831 126.84668 56.217773 C 126.80647 56.432249 126.74547 56.613779 126.66504 56.76123 C 126.58908 56.904214 126.48839 57.020499 126.36328 57.109863 C 126.24264 57.194761 126.09941 57.25715 125.93408 57.297363 C 125.77323 57.33311 125.59031 57.351563 125.38477 57.351563 L 125.13721 57.351563 L 124.90283 57.351563 C 124.83134 57.347089 124.75474 57.342846 124.67432 57.338379 C 124.65535 57.337325 124.63251 57.336503 124.61279 57.335449 C 124.60929 57.219067 124.60693 57.091932 124.60693 56.94873 L 124.60693 56.345215 L 124.60693 55.514648 L 124.60693 54.884766 L 124.60693 54.275391 C 124.6112 54.078789 124.61692 53.890155 124.62158 53.711426 C 124.62219 53.685897 124.62243 53.667377 124.62305 53.642578 C 124.71624 53.638185 124.8105 53.633586 124.90869 53.630859 C 125.06955 53.626393 125.23973 53.625 125.41846 53.625 z M 1.762207 55.702148 C 2.0526414 55.702148 2.2852122 55.731952 2.4594727 55.790039 C 2.6337338 55.848126 2.761369 55.937464 2.8417969 56.058105 C 2.9222248 56.178747 2.9619141 56.336113 2.9619141 56.532715 C 2.9619141 56.698039 2.940676 56.837025 2.8959961 56.94873 C 2.8557821 57.060438 2.7905358 57.148384 2.7011719 57.210938 C 2.6118073 57.273495 2.4912753 57.317432 2.3393555 57.344238 C 2.1919043 57.371045 2.0103729 57.385254 1.7958984 57.385254 L 1.2539063 57.385254 C 1.1015076 57.381942 0.93717276 57.376377 0.76757813 57.370605 C 0.76662862 57.335188 0.76559764 57.308028 0.76464844 57.270996 C 0.76018178 57.092267 0.75446666 56.899386 0.75 56.693848 C 0.74553334 56.48831 0.74414063 56.27844 0.74414063 56.063965 L 0.74414063 55.710938 C 0.82176433 55.709574 0.89952821 55.709473 0.97851563 55.709473 L 1.3945313 55.709473 C 1.5285784 55.705006 1.6505018 55.702148 1.762207 55.702148 z " /></svg>
